<mxfile host="app.diagrams.net" agent="Mozilla/5.0 (Windows NT 10.0; Win64; x64) AppleWebKit/537.36 (KHTML, like Gecko) Chrome/140.0.0.0 Safari/537.36 Edg/140.0.0.0" version="28.2.3">
  <diagram name="Page-1" id="AFivvDdLG7U_mYF27VgL">
    <mxGraphModel dx="590" dy="803" grid="1" gridSize="10" guides="1" tooltips="1" connect="1" arrows="1" fold="1" page="1" pageScale="1" pageWidth="850" pageHeight="1100" math="0" shadow="0">
      <root>
        <mxCell id="0" />
        <mxCell id="1" parent="0" />
        <object placeholders="1" c4Name="" c4Type="" c4Description="Tìm kiếm sách, mượn sách online, gia hạn, xem lịch sử mượn." label="&lt;font style=&quot;font-size: 16px&quot;&gt;&lt;b&gt;%c4Name%&lt;/b&gt;&lt;/font&gt;&lt;div&gt;[%c4Type%]&lt;/div&gt;&lt;br&gt;&lt;div&gt;&lt;font style=&quot;font-size: 11px&quot;&gt;&lt;font color=&quot;#cccccc&quot;&gt;%c4Description%&lt;/font&gt;&lt;/div&gt;" id="09ts_cuNDmx-liTUo4eX-1">
          <mxCell style="rounded=1;whiteSpace=wrap;html=1;labelBackgroundColor=none;fillColor=light-dark(#1e4074, #69aef2);fontColor=#ffffff;align=center;arcSize=0;strokeColor=light-dark(#1e4074, #7fb9f1);metaEdit=1;resizable=1;points=[[0.25,0,0],[0.5,0,0],[0.75,0,0],[1,0.25,0],[1,0.5,0],[1,0.75,0],[0.75,1,0],[0.5,1,0],[0.25,1,0],[0,0.75,0],[0,0.5,0],[0,0.25,0]];movable=1;rotatable=1;deletable=1;editable=1;locked=0;connectable=1;spacingBottom=-43;" vertex="1" parent="1">
            <mxGeometry x="1620" y="50" width="170" height="160" as="geometry" />
          </mxCell>
        </object>
        <mxCell id="09ts_cuNDmx-liTUo4eX-2" value="" style="sketch=0;pointerEvents=1;shadow=0;dashed=0;html=1;labelPosition=center;verticalLabelPosition=bottom;verticalAlign=top;outlineConnect=0;align=center;shape=mxgraph.office.users.user;" vertex="1" parent="1">
          <mxGeometry x="1682" y="60" width="46" height="50" as="geometry" />
        </mxCell>
        <mxCell id="09ts_cuNDmx-liTUo4eX-3" value="&lt;font color=&quot;#ffffff&quot;&gt;&lt;span style=&quot;font-size: 16px;&quot;&gt;Người dùng&lt;/span&gt;&lt;/font&gt;" style="text;html=1;align=center;verticalAlign=middle;resizable=0;points=[];autosize=1;strokeColor=none;fillColor=none;labelBackgroundColor=light-dark(#1e4074, #ededed);" vertex="1" parent="1">
          <mxGeometry x="1650" y="110" width="110" height="30" as="geometry" />
        </mxCell>
        <object placeholders="1" c4Name="" c4Type="" c4Description="Quản trị hệ thống" label="&lt;font&gt;&lt;b&gt;%c4Name%&lt;/b&gt;&lt;/font&gt;&lt;div&gt;[%c4Type%]&lt;/div&gt;&lt;br&gt;&lt;div&gt;&lt;font&gt;&lt;font color=&quot;#cccccc&quot;&gt;%c4Description%&lt;/font&gt;&lt;/font&gt;&lt;/div&gt;" id="09ts_cuNDmx-liTUo4eX-4">
          <mxCell style="rounded=1;whiteSpace=wrap;html=1;labelBackgroundColor=none;fillColor=light-dark(#1e4074, #69aef2);fontColor=#ffffff;align=center;arcSize=0;strokeColor=#0D5091;metaEdit=1;resizable=1;points=[[0.25,0,0],[0.5,0,0],[0.75,0,0],[1,0.25,0],[1,0.5,0],[1,0.75,0],[0.75,1,0],[0.5,1,0],[0.25,1,0],[0,0.75,0],[0,0.5,0],[0,0.25,0]];movable=1;rotatable=1;deletable=1;editable=1;locked=0;connectable=1;spacingBottom=-43;fontSize=15;" vertex="1" parent="1">
            <mxGeometry x="1060" y="30" width="220" height="140" as="geometry" />
          </mxCell>
        </object>
        <mxCell id="09ts_cuNDmx-liTUo4eX-5" value="" style="sketch=0;pointerEvents=1;shadow=0;dashed=0;html=1;labelPosition=center;verticalLabelPosition=bottom;verticalAlign=top;outlineConnect=0;align=center;shape=mxgraph.office.users.user;" vertex="1" parent="1">
          <mxGeometry x="1147" y="40" width="46" height="50" as="geometry" />
        </mxCell>
        <mxCell id="09ts_cuNDmx-liTUo4eX-6" value="&lt;font style=&quot;font-size: 16px; color: light-dark(rgb(255, 255, 255), rgb(237, 237, 237));&quot;&gt;Thủ thư&amp;nbsp;&lt;/font&gt;" style="text;html=1;align=center;verticalAlign=middle;resizable=0;points=[];autosize=1;strokeColor=none;fillColor=none;labelBackgroundColor=light-dark(#1e4074, #ededed);" vertex="1" parent="1">
          <mxGeometry x="1130" y="90" width="80" height="30" as="geometry" />
        </mxCell>
        <mxCell id="09ts_cuNDmx-liTUo4eX-7" value="Legend" style="shape=table;startSize=30;container=1;collapsible=0;childLayout=tableLayout;fontSize=16;align=left;verticalAlign=top;fillColor=none;strokeColor=none;fontColor=light-dark(#8c8496, #ababab);fontStyle=1;spacingLeft=6;spacing=0;resizable=1;movable=1;rotatable=1;deletable=1;editable=1;locked=0;connectable=1;" vertex="1" parent="1">
          <mxGeometry x="1650" y="1030" width="180" height="210" as="geometry" />
        </mxCell>
        <mxCell id="09ts_cuNDmx-liTUo4eX-8" value="" style="shape=tableRow;horizontal=0;startSize=0;swimlaneHead=0;swimlaneBody=0;strokeColor=inherit;top=0;left=0;bottom=0;right=0;collapsible=0;dropTarget=0;fillColor=none;points=[[0,0.5],[1,0.5]];portConstraint=eastwest;fontSize=12;" vertex="1" parent="09ts_cuNDmx-liTUo4eX-7">
          <mxGeometry y="30" width="180" height="30" as="geometry" />
        </mxCell>
        <mxCell id="09ts_cuNDmx-liTUo4eX-9" value="Person" style="shape=partialRectangle;html=1;whiteSpace=wrap;connectable=0;strokeColor=inherit;overflow=hidden;fillColor=#1E4074;top=0;left=0;bottom=0;right=0;pointerEvents=1;fontSize=12;align=left;fontColor=#FFFFFF;gradientColor=none;spacingLeft=10;spacingRight=4;" vertex="1" parent="09ts_cuNDmx-liTUo4eX-8">
          <mxGeometry width="180" height="30" as="geometry">
            <mxRectangle width="180" height="30" as="alternateBounds" />
          </mxGeometry>
        </mxCell>
        <mxCell id="09ts_cuNDmx-liTUo4eX-10" value="" style="shape=tableRow;horizontal=0;startSize=0;swimlaneHead=0;swimlaneBody=0;strokeColor=inherit;top=0;left=0;bottom=0;right=0;collapsible=0;dropTarget=0;fillColor=none;points=[[0,0.5],[1,0.5]];portConstraint=eastwest;fontSize=12;" vertex="1" parent="09ts_cuNDmx-liTUo4eX-7">
          <mxGeometry y="60" width="180" height="30" as="geometry" />
        </mxCell>
        <mxCell id="09ts_cuNDmx-liTUo4eX-11" value="Software System" style="shape=partialRectangle;html=1;whiteSpace=wrap;connectable=0;strokeColor=inherit;overflow=hidden;fillColor=#3162AF;top=0;left=0;bottom=0;right=0;pointerEvents=1;fontSize=12;align=left;fontColor=#FFFFFF;gradientColor=none;spacingLeft=10;spacingRight=4;" vertex="1" parent="09ts_cuNDmx-liTUo4eX-10">
          <mxGeometry width="180" height="30" as="geometry">
            <mxRectangle width="180" height="30" as="alternateBounds" />
          </mxGeometry>
        </mxCell>
        <mxCell id="09ts_cuNDmx-liTUo4eX-12" value="" style="shape=tableRow;horizontal=0;startSize=0;swimlaneHead=0;swimlaneBody=0;strokeColor=inherit;top=0;left=0;bottom=0;right=0;collapsible=0;dropTarget=0;fillColor=none;points=[[0,0.5],[1,0.5]];portConstraint=eastwest;fontSize=12;" vertex="1" parent="09ts_cuNDmx-liTUo4eX-7">
          <mxGeometry y="90" width="180" height="30" as="geometry" />
        </mxCell>
        <mxCell id="09ts_cuNDmx-liTUo4eX-13" value="Container" style="shape=partialRectangle;html=1;whiteSpace=wrap;connectable=0;strokeColor=inherit;overflow=hidden;fillColor=#52a2d8;top=0;left=0;bottom=0;right=0;pointerEvents=1;fontSize=12;align=left;fontColor=#FFFFFF;gradientColor=none;spacingLeft=10;spacingRight=4;" vertex="1" parent="09ts_cuNDmx-liTUo4eX-12">
          <mxGeometry width="180" height="30" as="geometry">
            <mxRectangle width="180" height="30" as="alternateBounds" />
          </mxGeometry>
        </mxCell>
        <mxCell id="09ts_cuNDmx-liTUo4eX-14" value="" style="shape=tableRow;horizontal=0;startSize=0;swimlaneHead=0;swimlaneBody=0;strokeColor=inherit;top=0;left=0;bottom=0;right=0;collapsible=0;dropTarget=0;fillColor=none;points=[[0,0.5],[1,0.5]];portConstraint=eastwest;fontSize=12;" vertex="1" parent="09ts_cuNDmx-liTUo4eX-7">
          <mxGeometry y="120" width="180" height="30" as="geometry" />
        </mxCell>
        <mxCell id="09ts_cuNDmx-liTUo4eX-15" value="External container" style="shape=partialRectangle;html=1;whiteSpace=wrap;connectable=0;strokeColor=inherit;overflow=hidden;fillColor=light-dark(#cdcdcd, #235b88);top=0;left=0;bottom=0;right=0;pointerEvents=1;fontSize=12;align=left;fontColor=#FFFFFF;gradientColor=none;spacingLeft=10;spacingRight=4;" vertex="1" parent="09ts_cuNDmx-liTUo4eX-14">
          <mxGeometry width="180" height="30" as="geometry">
            <mxRectangle width="180" height="30" as="alternateBounds" />
          </mxGeometry>
        </mxCell>
        <mxCell id="09ts_cuNDmx-liTUo4eX-16" value="" style="shape=tableRow;horizontal=0;startSize=0;swimlaneHead=0;swimlaneBody=0;strokeColor=inherit;top=0;left=0;bottom=0;right=0;collapsible=0;dropTarget=0;fillColor=none;points=[[0,0.5],[1,0.5]];portConstraint=eastwest;fontSize=12;" vertex="1" parent="09ts_cuNDmx-liTUo4eX-7">
          <mxGeometry y="150" width="180" height="30" as="geometry" />
        </mxCell>
        <mxCell id="09ts_cuNDmx-liTUo4eX-17" value="External Person" style="shape=partialRectangle;html=1;whiteSpace=wrap;connectable=0;strokeColor=inherit;overflow=hidden;fillColor=#6b6477;top=0;left=0;bottom=0;right=0;pointerEvents=1;fontSize=12;align=left;fontColor=#FFFFFF;gradientColor=none;spacingLeft=10;spacingRight=4;" vertex="1" parent="09ts_cuNDmx-liTUo4eX-16">
          <mxGeometry width="180" height="30" as="geometry">
            <mxRectangle width="180" height="30" as="alternateBounds" />
          </mxGeometry>
        </mxCell>
        <mxCell id="09ts_cuNDmx-liTUo4eX-18" value="" style="shape=tableRow;horizontal=0;startSize=0;swimlaneHead=0;swimlaneBody=0;strokeColor=inherit;top=0;left=0;bottom=0;right=0;collapsible=0;dropTarget=0;fillColor=none;points=[[0,0.5],[1,0.5]];portConstraint=eastwest;fontSize=12;" vertex="1" parent="09ts_cuNDmx-liTUo4eX-7">
          <mxGeometry y="180" width="180" height="30" as="geometry" />
        </mxCell>
        <mxCell id="09ts_cuNDmx-liTUo4eX-19" value="External Software System" style="shape=partialRectangle;html=1;whiteSpace=wrap;connectable=0;strokeColor=inherit;overflow=hidden;fillColor=light-dark(#8c8496, #7d7787);top=0;left=0;bottom=0;right=0;pointerEvents=1;fontSize=12;align=left;fontColor=#FFFFFF;gradientColor=none;spacingLeft=10;spacingRight=4;" vertex="1" parent="09ts_cuNDmx-liTUo4eX-18">
          <mxGeometry width="180" height="30" as="geometry">
            <mxRectangle width="180" height="30" as="alternateBounds" />
          </mxGeometry>
        </mxCell>
        <object placeholders="1" c4Name="Web application" c4Type="Static Hosting (Nginx/CDN)" c4Description="Cung cấp các file tĩnh (HTML shell, JS/CSS bundle của SPA, favicon, manifest) qua CDN/Nginx" label="&lt;font style=&quot;font-size: 16px&quot;&gt;&lt;b&gt;%c4Name%&lt;/b&gt;&lt;/font&gt;&lt;div&gt;[%c4Type%]&lt;/div&gt;&lt;br&gt;&lt;div&gt;&lt;font style=&quot;font-size: 11px&quot;&gt;&lt;font color=&quot;#cccccc&quot;&gt;%c4Description%&lt;/font&gt;&lt;/div&gt;" id="09ts_cuNDmx-liTUo4eX-20">
          <mxCell style="rounded=1;whiteSpace=wrap;html=1;labelBackgroundColor=none;fillColor=light-dark(#52a2d8, #69aef2);fontColor=#ffffff;align=center;arcSize=0;strokeColor=#0D5091;metaEdit=1;resizable=0;points=[[0.25,0,0],[0.5,0,0],[0.75,0,0],[1,0.25,0],[1,0.5,0],[1,0.75,0],[0.75,1,0],[0.5,1,0],[0.25,1,0],[0,0.75,0],[0,0.5,0],[0,0.25,0]];textShadow=1;" vertex="1" parent="1">
            <mxGeometry x="1020" y="440" width="240" height="120" as="geometry" />
          </mxCell>
        </object>
        <object placeholders="1" c4Name="API Application" c4Type="NestJS (Node.js) / Backend Service" c4Description="Xử lý nghiệp vụ cốt lõi" label="&lt;font style=&quot;font-size: 16px&quot;&gt;&lt;b&gt;%c4Name%&lt;/b&gt;&lt;/font&gt;&lt;div&gt;[%c4Type%]&lt;/div&gt;&lt;br&gt;&lt;div&gt;&lt;font style=&quot;font-size: 11px&quot;&gt;&lt;font color=&quot;#cccccc&quot;&gt;%c4Description%&lt;/font&gt;&lt;/div&gt;" id="09ts_cuNDmx-liTUo4eX-21">
          <mxCell style="rounded=1;whiteSpace=wrap;html=1;labelBackgroundColor=none;fillColor=light-dark(#52a2d8, #69aef2);fontColor=#ffffff;align=center;arcSize=0;strokeColor=#0D5091;metaEdit=1;resizable=0;points=[[0.25,0,0],[0.5,0,0],[0.75,0,0],[1,0.25,0],[1,0.5,0],[1,0.75,0],[0.75,1,0],[0.5,1,0],[0.25,1,0],[0,0.75,0],[0,0.5,0],[0,0.25,0]];" vertex="1" parent="1">
            <mxGeometry x="1520" y="720" width="240" height="120" as="geometry" />
          </mxCell>
        </object>
        <object placeholders="1" c4Name="Database" c4Type="Container" c4Technology="PostgreSQL" c4Description="Lưu trữ dữ liệu quan hệ" label="&lt;font style=&quot;font-size: 16px&quot;&gt;&lt;b&gt;%c4Name%&lt;/b&gt;&lt;/font&gt;&lt;div&gt;[%c4Type%:&amp;nbsp;%c4Technology%]&lt;/div&gt;&lt;br&gt;&lt;div&gt;&lt;font style=&quot;font-size: 11px&quot;&gt;&lt;font color=&quot;#E6E6E6&quot;&gt;%c4Description%&lt;/font&gt;&lt;/div&gt;" id="09ts_cuNDmx-liTUo4eX-22">
          <mxCell style="shape=cylinder3;size=15;whiteSpace=wrap;html=1;boundedLbl=1;rounded=0;labelBackgroundColor=none;fillColor=light-dark(#52a2d8, #1d8ab9);fontSize=12;fontColor=#ffffff;align=center;strokeColor=#0E7DAD;metaEdit=1;points=[[0.5,0,0],[1,0.25,0],[1,0.5,0],[1,0.75,0],[0.5,1,0],[0,0.75,0],[0,0.5,0],[0,0.25,0]];resizable=0;" vertex="1" parent="1">
            <mxGeometry x="1120" y="740" width="240" height="120" as="geometry" />
          </mxCell>
        </object>
        <object placeholders="1" c4Name="Thư viện online" c4Type="SystemScopeBoundary" c4Application="System" label="&lt;font style=&quot;font-size: 16px&quot;&gt;&lt;b&gt;&lt;div style=&quot;text-align: left&quot;&gt;%c4Name%&lt;/div&gt;&lt;/b&gt;&lt;/font&gt;&lt;div style=&quot;text-align: left&quot;&gt;[%c4Application%]&lt;/div&gt;" id="09ts_cuNDmx-liTUo4eX-23">
          <mxCell style="rounded=1;fontSize=11;whiteSpace=wrap;html=1;dashed=1;arcSize=20;fillColor=none;strokeColor=#666666;fontColor=#333333;labelBackgroundColor=none;align=left;verticalAlign=bottom;labelBorderColor=none;spacingTop=0;spacing=10;dashPattern=8 4;metaEdit=1;rotatable=0;perimeter=rectanglePerimeter;noLabel=0;labelPadding=0;allowArrows=0;connectable=0;expand=0;recursiveResize=0;editable=1;pointerEvents=0;absoluteArcSize=1;points=[[0.25,0,0],[0.5,0,0],[0.75,0,0],[1,0.25,0],[1,0.5,0],[1,0.75,0],[0.75,1,0],[0.5,1,0],[0.25,1,0],[0,0.75,0],[0,0.5,0],[0,0.25,0]];" vertex="1" parent="1">
            <mxGeometry x="940" y="380" width="1130" height="620" as="geometry" />
          </mxCell>
        </object>
        <object placeholders="1" c4Name="Payment Gateway" c4Type="Software System" c4Description="3rd party payment server" label="&lt;font style=&quot;font-size: 16px&quot;&gt;&lt;b&gt;%c4Name%&lt;/b&gt;&lt;/font&gt;&lt;div&gt;[%c4Type%]&lt;/div&gt;&lt;br&gt;&lt;div&gt;&lt;font style=&quot;font-size: 11px&quot;&gt;&lt;font color=&quot;#cccccc&quot;&gt;%c4Description%&lt;/font&gt;&lt;/div&gt;" id="09ts_cuNDmx-liTUo4eX-25">
          <mxCell style="rounded=1;whiteSpace=wrap;html=1;labelBackgroundColor=none;fillColor=light-dark(#8c8496, #7d7787);fontColor=#ffffff;align=center;arcSize=0;strokeColor=#736782;metaEdit=1;resizable=0;points=[[0.25,0,0],[0.5,0,0],[0.75,0,0],[1,0.25,0],[1,0.5,0],[1,0.75,0],[0.75,1,0],[0.5,1,0],[0.25,1,0],[0,0.75,0],[0,0.5,0],[0,0.25,0]];" vertex="1" parent="1">
            <mxGeometry x="2150" y="850" width="240" height="120" as="geometry" />
          </mxCell>
        </object>
        <mxCell id="09ts_cuNDmx-liTUo4eX-26" value="" style="endArrow=classic;html=1;rounded=0;exitX=0.455;exitY=1.026;exitDx=0;exitDy=0;exitPerimeter=0;entryX=0.583;entryY=0.003;entryDx=0;entryDy=0;entryPerimeter=0;" edge="1" parent="1" source="09ts_cuNDmx-liTUo4eX-4" target="09ts_cuNDmx-liTUo4eX-20">
          <mxGeometry width="50" height="50" relative="1" as="geometry">
            <mxPoint x="860" y="530" as="sourcePoint" />
            <mxPoint x="1210" y="240" as="targetPoint" />
          </mxGeometry>
        </mxCell>
        <mxCell id="09ts_cuNDmx-liTUo4eX-27" value="&lt;font style=&quot;font-size: 16px;&quot;&gt;&lt;b&gt;Sử dụng&lt;/b&gt;&lt;/font&gt;" style="text;html=1;align=center;verticalAlign=middle;resizable=0;points=[];autosize=1;strokeColor=none;fillColor=none;" vertex="1" parent="1">
          <mxGeometry x="1057" y="260" width="90" height="30" as="geometry" />
        </mxCell>
        <mxCell id="09ts_cuNDmx-liTUo4eX-28" value="[&amp;nbsp;&lt;i&gt;HTTP&amp;nbsp;&lt;/i&gt;]" style="text;html=1;align=center;verticalAlign=middle;resizable=0;points=[];autosize=1;strokeColor=none;fillColor=none;fontSize=15;" vertex="1" parent="1">
          <mxGeometry x="1062" y="280" width="80" height="30" as="geometry" />
        </mxCell>
        <mxCell id="09ts_cuNDmx-liTUo4eX-29" value="" style="endArrow=classic;html=1;rounded=0;exitX=0.25;exitY=1;exitDx=0;exitDy=0;exitPerimeter=0;entryX=0.59;entryY=0.003;entryDx=0;entryDy=0;entryPerimeter=0;" edge="1" parent="1" source="09ts_cuNDmx-liTUo4eX-1" target="09ts_cuNDmx-liTUo4eX-48">
          <mxGeometry width="50" height="50" relative="1" as="geometry">
            <mxPoint x="2485" y="280" as="sourcePoint" />
            <mxPoint x="2550" y="270" as="targetPoint" />
          </mxGeometry>
        </mxCell>
        <mxCell id="09ts_cuNDmx-liTUo4eX-32" value="" style="endArrow=classic;html=1;rounded=0;exitX=0.108;exitY=1.002;exitDx=0;exitDy=0;exitPerimeter=0;entryX=0.75;entryY=0;entryDx=0;entryDy=0;entryPerimeter=0;" edge="1" parent="1" source="09ts_cuNDmx-liTUo4eX-1" target="09ts_cuNDmx-liTUo4eX-20">
          <mxGeometry width="50" height="50" relative="1" as="geometry">
            <mxPoint x="1760" y="280" as="sourcePoint" />
            <mxPoint x="1950" y="260" as="targetPoint" />
          </mxGeometry>
        </mxCell>
        <mxCell id="09ts_cuNDmx-liTUo4eX-36" value="" style="endArrow=classic;html=1;rounded=0;exitX=1;exitY=0.5;exitDx=0;exitDy=0;exitPerimeter=0;entryX=0.25;entryY=0;entryDx=0;entryDy=0;entryPerimeter=0;" edge="1" parent="1" source="09ts_cuNDmx-liTUo4eX-21" target="09ts_cuNDmx-liTUo4eX-25">
          <mxGeometry width="50" height="50" relative="1" as="geometry">
            <mxPoint x="780" y="870" as="sourcePoint" />
            <mxPoint x="982" y="1070" as="targetPoint" />
          </mxGeometry>
        </mxCell>
        <mxCell id="09ts_cuNDmx-liTUo4eX-37" value="&lt;span style=&quot;font-size: 16px;&quot;&gt;&lt;b&gt;Uỷ quyền thanh toán&lt;/b&gt;&lt;/span&gt;" style="text;html=1;align=center;verticalAlign=middle;resizable=0;points=[];autosize=1;strokeColor=none;fillColor=none;" vertex="1" parent="1">
          <mxGeometry x="1868" y="830" width="180" height="30" as="geometry" />
        </mxCell>
        <mxCell id="09ts_cuNDmx-liTUo4eX-38" value="[&amp;nbsp;&lt;i&gt;HTTP&amp;nbsp;&lt;/i&gt;]" style="text;html=1;align=center;verticalAlign=middle;resizable=0;points=[];autosize=1;strokeColor=none;fillColor=none;fontSize=15;" vertex="1" parent="1">
          <mxGeometry x="1903" y="850" width="80" height="30" as="geometry" />
        </mxCell>
        <mxCell id="09ts_cuNDmx-liTUo4eX-39" value="&lt;font style=&quot;font-size: 16px;&quot;&gt;&lt;b&gt;Thanh toán thông qua&lt;/b&gt;&lt;/font&gt;" style="text;html=1;align=center;verticalAlign=middle;resizable=0;points=[];autosize=1;strokeColor=none;fillColor=none;" vertex="1" parent="1">
          <mxGeometry x="2080" y="570" width="190" height="30" as="geometry" />
        </mxCell>
        <mxCell id="09ts_cuNDmx-liTUo4eX-40" value="[&amp;nbsp;&lt;i&gt;HTTP&amp;nbsp;&lt;/i&gt;]" style="text;html=1;align=center;verticalAlign=middle;resizable=0;points=[];autosize=1;strokeColor=none;fillColor=none;fontSize=15;" vertex="1" parent="1">
          <mxGeometry x="2135" y="590" width="80" height="30" as="geometry" />
        </mxCell>
        <mxCell id="09ts_cuNDmx-liTUo4eX-41" value="" style="endArrow=classic;html=1;rounded=0;exitX=0.75;exitY=1;exitDx=0;exitDy=0;exitPerimeter=0;entryX=0.174;entryY=0.032;entryDx=0;entryDy=0;entryPerimeter=0;" edge="1" parent="1" source="09ts_cuNDmx-liTUo4eX-48" target="09ts_cuNDmx-liTUo4eX-21">
          <mxGeometry width="50" height="50" relative="1" as="geometry">
            <mxPoint x="1000" y="370" as="sourcePoint" />
            <mxPoint x="1202" y="570" as="targetPoint" />
          </mxGeometry>
        </mxCell>
        <mxCell id="09ts_cuNDmx-liTUo4eX-42" value="&lt;font style=&quot;font-size: 16px;&quot;&gt;&lt;b&gt;Gọi API&lt;/b&gt;&lt;/font&gt;" style="text;html=1;align=center;verticalAlign=middle;resizable=0;points=[];autosize=1;strokeColor=none;fillColor=none;" vertex="1" parent="1">
          <mxGeometry x="1450" y="620" width="80" height="30" as="geometry" />
        </mxCell>
        <mxCell id="09ts_cuNDmx-liTUo4eX-43" value="[&amp;nbsp;&lt;span style=&quot;color: rgb(31, 35, 40); font-family: -apple-system, BlinkMacSystemFont, &amp;quot;Segoe UI&amp;quot;, &amp;quot;Noto Sans&amp;quot;, Helvetica, Arial, sans-serif, &amp;quot;Apple Color Emoji&amp;quot;, &amp;quot;Segoe UI Emoji&amp;quot;; font-size: 16px; text-align: left; text-wrap-mode: wrap; background-color: rgb(255, 255, 255);&quot;&gt;(JSON/HTTPS)&lt;/span&gt;&lt;i&gt;&amp;nbsp;&lt;/i&gt;]" style="text;html=1;align=center;verticalAlign=middle;resizable=0;points=[];autosize=1;strokeColor=none;fillColor=none;fontSize=15;" vertex="1" parent="1">
          <mxGeometry x="1420" y="640" width="140" height="30" as="geometry" />
        </mxCell>
        <mxCell id="09ts_cuNDmx-liTUo4eX-44" value="" style="endArrow=classic;html=1;rounded=0;exitX=0.007;exitY=0.639;exitDx=0;exitDy=0;exitPerimeter=0;entryX=1;entryY=0.5;entryDx=0;entryDy=0;entryPerimeter=0;" edge="1" parent="1" source="09ts_cuNDmx-liTUo4eX-21" target="09ts_cuNDmx-liTUo4eX-22">
          <mxGeometry width="50" height="50" relative="1" as="geometry">
            <mxPoint x="1130" y="580" as="sourcePoint" />
            <mxPoint x="1130" y="740" as="targetPoint" />
          </mxGeometry>
        </mxCell>
        <mxCell id="09ts_cuNDmx-liTUo4eX-45" value="&lt;font style=&quot;font-size: 16px;&quot;&gt;&lt;b&gt;Reads/Writes&lt;/b&gt;&lt;/font&gt;" style="text;html=1;align=center;verticalAlign=middle;resizable=0;points=[];autosize=1;strokeColor=none;fillColor=none;" vertex="1" parent="1">
          <mxGeometry x="1380" y="750" width="120" height="30" as="geometry" />
        </mxCell>
        <mxCell id="09ts_cuNDmx-liTUo4eX-46" value="[ &lt;i&gt;SQL&lt;/i&gt;]" style="text;html=1;align=center;verticalAlign=middle;resizable=0;points=[];autosize=1;strokeColor=none;fillColor=none;fontSize=15;" vertex="1" parent="1">
          <mxGeometry x="1395" y="770" width="70" height="30" as="geometry" />
        </mxCell>
        <object placeholders="1" c4Name="Mobile App" c4Type="Flutter (iOS/Android)" c4Description="Ứng dụng di động cung cấp trải nghiệm tối ưu cho người đọc" label="&lt;font style=&quot;font-size: 16px&quot;&gt;&lt;b&gt;%c4Name%&lt;/b&gt;&lt;/font&gt;&lt;div&gt;[%c4Type%]&lt;/div&gt;&lt;br&gt;&lt;div&gt;&lt;font style=&quot;font-size: 11px&quot;&gt;&lt;font color=&quot;#cccccc&quot;&gt;%c4Description%&lt;/font&gt;&lt;/div&gt;" id="09ts_cuNDmx-liTUo4eX-47">
          <mxCell style="rounded=1;whiteSpace=wrap;html=1;labelBackgroundColor=none;fillColor=light-dark(#52a2d8, #69aef2);fontColor=#ffffff;align=center;arcSize=0;strokeColor=#0D5091;metaEdit=1;resizable=0;points=[[0.25,0,0],[0.5,0,0],[0.75,0,0],[1,0.25,0],[1,0.5,0],[1,0.75,0],[0.75,1,0],[0.5,1,0],[0.25,1,0],[0,0.75,0],[0,0.5,0],[0,0.25,0]];textShadow=1;" vertex="1" parent="1">
            <mxGeometry x="1680" y="440" width="240" height="120" as="geometry" />
          </mxCell>
        </object>
        <object placeholders="1" c4Name="SPA" c4Type="ReactJS (Browser)" c4Description="Thực thi toàn bộ chức năng phía client trong trình duyệt" label="&lt;font style=&quot;font-size: 16px&quot;&gt;&lt;b&gt;%c4Name%&lt;/b&gt;&lt;/font&gt;&lt;div&gt;[%c4Type%]&lt;/div&gt;&lt;br&gt;&lt;div&gt;&lt;font style=&quot;font-size: 11px&quot;&gt;&lt;font color=&quot;#cccccc&quot;&gt;%c4Description%&lt;/font&gt;&lt;/div&gt;" id="09ts_cuNDmx-liTUo4eX-48">
          <mxCell style="rounded=1;whiteSpace=wrap;html=1;labelBackgroundColor=none;fillColor=light-dark(#52a2d8, #69aef2);fontColor=#ffffff;align=center;arcSize=0;strokeColor=#0D5091;metaEdit=1;resizable=0;points=[[0.25,0,0],[0.5,0,0],[0.75,0,0],[1,0.25,0],[1,0.5,0],[1,0.75,0],[0.75,1,0],[0.5,1,0],[0.25,1,0],[0,0.75,0],[0,0.5,0],[0,0.25,0]];textShadow=1;" vertex="1" parent="1">
            <mxGeometry x="1380" y="440" width="240" height="120" as="geometry" />
          </mxCell>
        </object>
        <mxCell id="09ts_cuNDmx-liTUo4eX-49" value="" style="edgeStyle=none;orthogonalLoop=1;jettySize=auto;html=1;rounded=0;exitX=1;exitY=0.5;exitDx=0;exitDy=0;exitPerimeter=0;entryX=0;entryY=0.5;entryDx=0;entryDy=0;entryPerimeter=0;" edge="1" parent="1" source="09ts_cuNDmx-liTUo4eX-20" target="09ts_cuNDmx-liTUo4eX-48">
          <mxGeometry width="100" relative="1" as="geometry">
            <mxPoint x="1150" y="340" as="sourcePoint" />
            <mxPoint x="1250" y="340" as="targetPoint" />
            <Array as="points" />
          </mxGeometry>
        </mxCell>
        <mxCell id="09ts_cuNDmx-liTUo4eX-50" value="Cung cấp&lt;br&gt;gói cho trình duyệt" style="text;html=1;align=center;verticalAlign=middle;resizable=0;points=[];autosize=1;strokeColor=none;fillColor=none;" vertex="1" parent="1">
          <mxGeometry x="1260" y="450" width="120" height="40" as="geometry" />
        </mxCell>
        <mxCell id="09ts_cuNDmx-liTUo4eX-51" value="" style="endArrow=classic;html=1;rounded=0;exitX=0.096;exitY=1.032;exitDx=0;exitDy=0;exitPerimeter=0;entryX=0.75;entryY=0;entryDx=0;entryDy=0;entryPerimeter=0;" edge="1" parent="1" source="09ts_cuNDmx-liTUo4eX-47" target="09ts_cuNDmx-liTUo4eX-21">
          <mxGeometry width="50" height="50" relative="1" as="geometry">
            <mxPoint x="1560" y="630" as="sourcePoint" />
            <mxPoint x="1562" y="794" as="targetPoint" />
          </mxGeometry>
        </mxCell>
        <mxCell id="09ts_cuNDmx-liTUo4eX-53" value="&lt;font style=&quot;font-size: 16px;&quot;&gt;&lt;b&gt;Gọi API&lt;/b&gt;&lt;/font&gt;" style="text;html=1;align=center;verticalAlign=middle;resizable=0;points=[];autosize=1;strokeColor=none;fillColor=none;" vertex="1" parent="1">
          <mxGeometry x="1730" y="620" width="80" height="30" as="geometry" />
        </mxCell>
        <mxCell id="09ts_cuNDmx-liTUo4eX-54" value="[&amp;nbsp;&lt;span style=&quot;color: rgb(31, 35, 40); font-family: -apple-system, BlinkMacSystemFont, &amp;quot;Segoe UI&amp;quot;, &amp;quot;Noto Sans&amp;quot;, Helvetica, Arial, sans-serif, &amp;quot;Apple Color Emoji&amp;quot;, &amp;quot;Segoe UI Emoji&amp;quot;; font-size: 16px; text-align: left; text-wrap-mode: wrap; background-color: rgb(255, 255, 255);&quot;&gt;(JSON/HTTPS)&lt;/span&gt;&lt;i&gt;&amp;nbsp;&lt;/i&gt;]" style="text;html=1;align=center;verticalAlign=middle;resizable=0;points=[];autosize=1;strokeColor=none;fillColor=none;fontSize=15;" vertex="1" parent="1">
          <mxGeometry x="1700" y="640" width="140" height="30" as="geometry" />
        </mxCell>
        <mxCell id="09ts_cuNDmx-liTUo4eX-56" value="" style="endArrow=classic;html=1;rounded=0;exitX=0.5;exitY=1;exitDx=0;exitDy=0;exitPerimeter=0;entryX=0.424;entryY=0.031;entryDx=0;entryDy=0;entryPerimeter=0;" edge="1" parent="1" source="09ts_cuNDmx-liTUo4eX-1" target="09ts_cuNDmx-liTUo4eX-47">
          <mxGeometry width="50" height="50" relative="1" as="geometry">
            <mxPoint x="1751" y="280" as="sourcePoint" />
            <mxPoint x="1610" y="510" as="targetPoint" />
          </mxGeometry>
        </mxCell>
        <mxCell id="09ts_cuNDmx-liTUo4eX-58" value="&lt;font style=&quot;font-size: 16px;&quot;&gt;&lt;b&gt;Sử dụng&lt;/b&gt;&lt;/font&gt;" style="text;html=1;align=center;verticalAlign=middle;resizable=0;points=[];autosize=1;strokeColor=none;fillColor=none;" vertex="1" parent="1">
          <mxGeometry x="1340" y="260" width="90" height="30" as="geometry" />
        </mxCell>
        <mxCell id="09ts_cuNDmx-liTUo4eX-59" value="[&amp;nbsp;&lt;i&gt;HTTP&amp;nbsp;&lt;/i&gt;]" style="text;html=1;align=center;verticalAlign=middle;resizable=0;points=[];autosize=1;strokeColor=none;fillColor=none;fontSize=15;" vertex="1" parent="1">
          <mxGeometry x="1345" y="280" width="80" height="30" as="geometry" />
        </mxCell>
        <mxCell id="09ts_cuNDmx-liTUo4eX-60" value="&lt;font style=&quot;font-size: 16px;&quot;&gt;&lt;b&gt;Sử dụng&lt;/b&gt;&lt;/font&gt;" style="text;html=1;align=center;verticalAlign=middle;resizable=0;points=[];autosize=1;strokeColor=none;fillColor=none;" vertex="1" parent="1">
          <mxGeometry x="1480" y="310" width="90" height="30" as="geometry" />
        </mxCell>
        <mxCell id="09ts_cuNDmx-liTUo4eX-61" value="[&amp;nbsp;&lt;i&gt;HTTP&amp;nbsp;&lt;/i&gt;]" style="text;html=1;align=center;verticalAlign=middle;resizable=0;points=[];autosize=1;strokeColor=none;fillColor=none;fontSize=15;" vertex="1" parent="1">
          <mxGeometry x="1485" y="330" width="80" height="30" as="geometry" />
        </mxCell>
        <mxCell id="09ts_cuNDmx-liTUo4eX-62" value="&lt;font style=&quot;font-size: 16px;&quot;&gt;&lt;b&gt;Sử dụng&lt;/b&gt;&lt;/font&gt;" style="text;html=1;align=center;verticalAlign=middle;resizable=0;points=[];autosize=1;strokeColor=none;fillColor=none;" vertex="1" parent="1">
          <mxGeometry x="1682" y="290" width="90" height="30" as="geometry" />
        </mxCell>
        <mxCell id="09ts_cuNDmx-liTUo4eX-63" value="[&amp;nbsp;&lt;i&gt;HTTP&amp;nbsp;&lt;/i&gt;]" style="text;html=1;align=center;verticalAlign=middle;resizable=0;points=[];autosize=1;strokeColor=none;fillColor=none;fontSize=15;" vertex="1" parent="1">
          <mxGeometry x="1687" y="310" width="80" height="30" as="geometry" />
        </mxCell>
        <mxCell id="09ts_cuNDmx-liTUo4eX-64" value="" style="endArrow=classic;html=1;rounded=0;exitX=0.75;exitY=1;exitDx=0;exitDy=0;exitPerimeter=0;entryX=0.431;entryY=0.003;entryDx=0;entryDy=0;entryPerimeter=0;" edge="1" parent="1" source="09ts_cuNDmx-liTUo4eX-1" target="09ts_cuNDmx-liTUo4eX-25">
          <mxGeometry width="50" height="50" relative="1" as="geometry">
            <mxPoint x="1710" y="230" as="sourcePoint" />
            <mxPoint x="1787" y="464" as="targetPoint" />
          </mxGeometry>
        </mxCell>
      </root>
    </mxGraphModel>
  </diagram>
</mxfile>
